# xmcd
#
# Track frame offsets: 
#        150
#        10312
#        19627
#        34025
#        46186
#        59368
#        75966
#        93034
#        109533
#        120672
#        139949
#        169466
#        183117
#
# Disc length: 2605 seconds
#
# Revision: 1
# Processed by: cddbd v1.5.2PL0 Copyright (c) Steve Scherf et al.
# Submitted via: ExactAudioCopy v1.3
#
DISCID=950a2b0d
DTITLE=Various Artist - The Essential Guide to Cajun Music
DYEAR=2007
DGENRE=Cajun
TTITLE0=D.L. Menard with Badeaux and The Loiusana Man - The Back Door
TTITLE1=The Balfa Brothers - Tit Galop Pour Mamou
TTITLE2=The Balfa Brothers - Parlez Nous A Boire
TTITLE3=Iry Lejeune - J'ai Ete Au Bal
TTITLE4=Nathan Abshire and The Pine Grove Boys - Pine Grove Blues
TTITLE5=Balfa Toujours - Freight Train Blues
TTITLE6=Balfa Toujours - Bernadette
TTITLE7=Eddi LeJeune - La False De Grand Chemium
TTITLE8=D.L. Menard - Green Oak Tree
TTITLE9=The Savoy-Doucet Band - La Valse De Vachers
TTITLE10=The Savoy-Doucet Band - Jai Ete-Z-Au-Bal
TTITLE11=Bruce Daigrepont - Acadie A La Lousiane
TTITLE12=Belton Richard - Un Autre Soir D'Ennui
EXTD=
EXTT0=
EXTT1=
EXTT2=
EXTT3=
EXTT4=
EXTT5=
EXTT6=
EXTT7=
EXTT8=
EXTT9=
EXTT10=
EXTT11=
EXTT12=
PLAYORDER=
